<svg class="svg-icon" style="width: 1em; height: 1em;vertical-align: middle;fill: currentColor;overflow: hidden;" viewBox="0 0 1024 1024" version="1.1" xmlns="http://www.w3.org/2000/svg"><path d="M832 128 192 128C153.6 128 128 153.6 128 192l0 640c0 38.4 25.6 64 64 64l441.6 0 32 0 12.8 0c-38.4 0-76.8-12.8-115.2-32L396.8 864l0-147.2 70.4 0c0-12.8 0-19.2-6.4-32L396.8 684.8 396.8 524.8l128 0c12.8-12.8 25.6-25.6 38.4-32L396.8 492.8 396.8 352l243.2 0 0 108.8c12.8 0 19.2 0 32-6.4L672 352l198.4 0 0 140.8-70.4 0c12.8 6.4 25.6 19.2 38.4 32l32 0 0 38.4C883.2 601.6 896 640 896 678.4L896 192C896 153.6 870.4 128 832 128zM364.8 864 224 864c-38.4 0-64-25.6-64-64l0-83.2 204.8 0L364.8 864zM364.8 684.8 160 684.8 160 524.8l204.8 0L364.8 684.8zM364.8 499.2 160 499.2 160 352l204.8 0L364.8 499.2zM864 320l-704 0L160 224c0-38.4 25.6-64 64-64l576 0c38.4 0 64 25.6 64 64L864 320z"  /><path d="M678.4 492.8c-108.8 0-192 83.2-192 192s83.2 192 192 192 192-83.2 192-192S787.2 492.8 678.4 492.8zM678.4 844.8c-89.6 0-160-70.4-160-160 0-89.6 70.4-160 160-160s160 70.4 160 160C838.4 768 768 844.8 678.4 844.8z"  /><path d="M697.6 787.2l0 25.6-19.2 0 0-25.6c-44.8 0-64-25.6-76.8-70.4l32-6.4c6.4 32 19.2 51.2 44.8 51.2l0-76.8c-44.8-6.4-70.4-32-70.4-64 0-38.4 25.6-57.6 70.4-57.6L678.4 544l19.2 0 0 25.6c38.4 6.4 57.6 25.6 64 57.6l-25.6 6.4c-6.4-25.6-19.2-38.4-38.4-38.4l0 70.4c51.2 12.8 70.4 32 70.4 64C761.6 768 742.4 787.2 697.6 787.2zM678.4 659.2 678.4 588.8c-25.6 0-38.4 12.8-38.4 32C640 640 652.8 652.8 678.4 659.2zM697.6 691.2 697.6 768c25.6 0 38.4-12.8 38.4-38.4C736 710.4 723.2 697.6 697.6 691.2z"  /></svg>